<?xml version="1.0" encoding="UTF-8"?>
<svg xmlns="http://www.w3.org/2000/svg"
     viewBox="0 0 300 300">
    <path d="M175 138Q175 148 167.5 155.5Q160 163 150.0 163.0Q140 163 132.5 155.5Q125 148 125 138Q125 130 130.0 119.5Q135 109 143 100Q129 88 113 88Q98 88 84 100Q97 114 105.0 132.0Q113 150 113 163Q113 178 101.5 189.0Q90 200 75.0 200.0Q60 200 49.0 189.0Q38 178 38 163Q38 150 45.5 132.0Q53 114 66 100Q54 89 43 88Q40 87 38.5 85.0Q37 83 37.5 80.5Q38 78 39.5 76.5Q41 75 44 75H45Q60 78 75 91Q93 75 112.5 75.0Q132 75 147 87Q160 97 168 113Q175 127 175 138ZM50 163Q50 173 57.5 180.5Q65 188 75.0 188.0Q85 188 92.5 180.5Q100 173 100.0 162.5Q100 152 93.0 136.5Q86 121 75 109Q64 121 57.0 136.5Q50 152 50 163ZM138 138Q138 143 141.5 146.5Q145 150 150.0 150.0Q155 150 159.0 146.5Q163 143 163.0 138.0Q163 133 160.0 125.0Q157 117 151 109Q145 117 141.5 125.0Q138 133 138 138ZM291 153Q282 162 269.0 162.0Q256 162 247 153L150 57Q137 44 137 26V6Q137 4 139.0 2.0Q141 0 144 0H164Q182 0 194 13L291 109Q300 118 300.0 131.0Q300 144 291 154ZM282 118 186 22Q177 13 164 13H150V26Q150 39 159 48L255 145Q261 150 269.0 150.0Q277 150 282.0 144.5Q287 139 287.0 131.5Q287 124 282 118ZM106 38H56Q38 38 25.5 50.5Q13 63 13 81V244Q13 262 25.5 275.0Q38 288 56 288H138V244Q138 231 147.0 222.0Q156 213 169 213H213V169Q213 166 214.5 164.5Q216 163 218.5 163.0Q221 163 223.0 164.5Q225 166 225 169V215Q225 234 212 247L172 287Q159 300 141 300H56Q33 300 16.5 283.5Q0 267 0 244V81Q0 58 16.5 41.5Q33 25 56 25H106Q109 25 111.0 27.0Q113 29 113.0 31.5Q113 34 111.0 36.0Q109 38 106 38ZM204 238Q209 233 211 225H169Q161 225 155.5 230.5Q150 236 150 244V286Q157 284 163 278Z"
          transform="translate(0,300) scale(1,-1)"/>
</svg>
