<?xml version="1.0" encoding="UTF-8"?>
<svg xmlns="http://www.w3.org/2000/svg"
     viewBox="0 0 300 300">
    <path d="M244 238Q257 238 266.0 247.0Q275 256 275.0 269.0Q275 282 266.0 291.0Q257 300 244.0 300.0Q231 300 222.0 291.0Q213 282 213.0 269.0Q213 256 222.0 247.0Q231 238 244 238ZM244 288Q252 288 257.5 282.5Q263 277 263.0 269.0Q263 261 257.5 255.5Q252 250 244.0 250.0Q236 250 230.5 255.5Q225 261 225.0 269.0Q225 277 230.5 282.5Q236 288 244 288ZM272 104Q267 113 256 113H196L234 196Q237 203 236.5 210.5Q236 218 232.0 224.0Q228 230 221.5 234.0Q215 238 208 238H133L101 172L112 166L141 225H179L140 140Q137 133 137.5 126.0Q138 119 142.0 113.0Q146 107 152.0 103.5Q158 100 165 100H212Q212 76 200.5 56.0Q189 36 168.5 24.5Q148 13 124.5 13.0Q101 13 81.0 24.5Q61 36 49.0 56.0Q37 76 37 100Q37 121 46.5 139.0Q56 157 71 169L82 190Q56 178 40.5 153.5Q25 129 25 100Q25 73 38.5 50.0Q52 27 75.0 13.5Q98 0 125.0 0.0Q152 0 175.0 13.5Q198 27 211.5 50.0Q225 73 225 100H256Q260 100 261.5 97.0Q263 94 262 91L226 22L237 16L273 85Q277 95 272 104ZM152 120Q148 127 151 135L193 225H208Q217 225 222.0 217.5Q227 210 223 201L182 113H166Q157 113 152 120Z"
          transform="translate(0,300) scale(1,-1)"/>
</svg>
