<?xml version="1.0" encoding="UTF-8"?>
<svg xmlns="http://www.w3.org/2000/svg"
     viewBox="0 0 300 300">
    <path d="M269 263H31Q18 263 9.0 253.5Q0 244 0 231V194Q0 181 9.0 172.0Q18 163 31 163H269Q282 162 291.0 171.5Q300 181 300 194V231Q300 244 291.0 253.0Q282 262 269 262ZM13 194V231Q13 239 18.0 244.5Q23 250 31 250H175V175H31Q23 175 17.5 180.5Q12 186 13 194ZM288 194Q288 186 282.5 180.5Q277 175 269 175H188V250H269Q277 250 282.5 244.5Q288 239 288 231ZM269 138H31Q18 138 9.0 128.5Q0 119 0 106V69Q0 56 9.0 47.0Q18 38 31 38H269Q282 38 291.0 47.0Q300 56 300 69V106Q300 119 291.0 128.0Q282 137 269 137ZM13 69V106Q13 114 18.0 119.5Q23 125 31 125H100V50H31Q23 50 17.5 55.5Q12 61 13 69ZM288 69Q288 61 282.5 55.5Q277 50 269 50H113V125H269Q277 125 282.5 119.5Q288 114 288 106Z"
          transform="translate(0,300) scale(1,-1)"/>
</svg>
